<svg width="40" height="40" viewBox="0 0 40 40" fill="none" xmlns="http://www.w3.org/2000/svg">
    <path
        d="M1.66667 1.66666L38.3333 38.3333M15 15V20C15.0009 20.9883 15.2946 21.9541 15.8441 22.7755C16.3935 23.597 17.1741 24.2372 18.0872 24.6152C19.0003 24.9933 20.0049 25.0923 20.9742 24.8998C21.9436 24.7072 22.8341 24.2317 23.5333 23.5333M25 15.5667V6.66666C25.0012 5.42671 24.5417 4.23053 23.7106 3.31033C22.8795 2.39013 21.7362 1.81157 20.5025 1.68695C19.2688 1.56234 18.0329 1.90057 17.0345 2.63598C16.0362 3.37139 15.3467 4.45151 15.1 5.66667M28.3333 28.25C26.7063 29.9107 24.6202 31.0474 22.3427 31.5143C20.0651 31.9812 17.7001 31.757 15.5508 30.8705C13.4016 29.9839 11.5663 28.4754 10.2803 26.5386C8.9943 24.6017 8.31633 22.3248 8.33333 20V16.6667M31.6667 16.6667V20C31.6661 20.6874 31.6047 21.3734 31.4833 22.05M20 31.6667V38.3333M13.3333 38.3333H26.6667"
        stroke="#FF3B30" stroke-width="3.5" stroke-linecap="round" stroke-linejoin="round" />
</svg>