<svg width="28" height="40" viewBox="0 0 28 40" fill="none" xmlns="http://www.w3.org/2000/svg">
    <path
        d="M25.6667 16.6667V20C25.6667 23.0942 24.4375 26.0617 22.2496 28.2496C20.0616 30.4375 17.0942 31.6667 14 31.6667M14 31.6667C10.9058 31.6667 7.93834 30.4375 5.75042 28.2496C3.56249 26.0617 2.33333 23.0942 2.33333 20V16.6667M14 31.6667V38.3333M7.33333 38.3333H20.6667M14 1.66667C12.6739 1.66667 11.4021 2.19345 10.4645 3.13113C9.52678 4.06882 8.99999 5.34059 8.99999 6.66667V20C8.99999 21.3261 9.52678 22.5979 10.4645 23.5355C11.4021 24.4732 12.6739 25 14 25C15.3261 25 16.5978 24.4732 17.5355 23.5355C18.4732 22.5979 19 21.3261 19 20V6.66667C19 5.34059 18.4732 4.06882 17.5355 3.13113C16.5978 2.19345 15.3261 1.66667 14 1.66667Z"
        stroke="#1E1E1E" stroke-width="3.5" stroke-linecap="round" stroke-linejoin="round" />
</svg>